# xmcd
#
# Track frame offsets: 
#        150
#        18107
#        31972
#        48453
#        66428
#        82158
#        98334
#        115230
#        132672
#        151772
#
# Disc length: 2387 seconds
#
# Revision: 0
# Processed by: cddbd v1.5.2PL0 Copyright (c) Steve Scherf et al.
# Submitted via: ExactAudioCopy v0.99pb5
#
DISCID=7b09510a
DTITLE=Aaron Navarro - Southern Thread
DYEAR=2009
DGENRE=Southern Rock
TTITLE0=Southern Thread
TTITLE1=All Mixed Up
TTITLE2=Too Much
TTITLE3=When The Love Is Good
TTITLE4=Empty Bottles
TTITLE5=Lost
TTITLE6=Trying Not To Think
TTITLE7=You Know Who
TTITLE8=Built For Sin
TTITLE9=17 Miles To Memphis
EXTD=
EXTT0=
EXTT1=
EXTT2=
EXTT3=
EXTT4=
EXTT5=
EXTT6=
EXTT7=
EXTT8=
EXTT9=
PLAYORDER=
